<svg xmlns="http://www.w3.org/2000/svg" xmlns:xlink="http://www.w3.org/1999/xlink" width="1080" zoomAndPan="magnify" viewBox="0 0 810 809.999993" height="1080" preserveAspectRatio="xMidYMid meet" version="1.0"><defs><g/><clipPath id="c6c2c83425"><path d="M 89.214844 81 L 720.714844 81 L 720.714844 461.25 L 89.214844 461.25 Z M 89.214844 81 " clip-rule="nonzero"/></clipPath></defs><g clip-path="url(#c6c2c83425)"><path fill="#f2bf08" d="M 285.386719 321.300781 L 242.671875 370.59375 L 89.597656 219.179688 L 184.003906 219.179688 Z M 630.109375 219.179688 L 509.144531 358.390625 L 416.835938 266.058594 L 287.335938 414.78125 L 334.324219 461.25 L 418.234375 363.984375 L 511.242188 455.628906 L 720.292969 219.179688 Z M 410.714844 81 L 282.589844 226.160156 L 328.902344 274.082031 L 413.351562 174.914062 L 507.21875 268.828125 L 550.75 219.167969 Z M 410.714844 81 " fill-opacity="1" fill-rule="nonzero"/></g><g fill="#ffffff" fill-opacity="1"><g transform="translate(70.36041, 601.242811)"><g><path d="M 24.90625 0 L 11.390625 0 L 11.390625 -79.015625 L 24.90625 -79.015625 Z M 10.296875 -99.96875 C 10.296875 -102.15625 10.960938 -104.003906 12.296875 -105.515625 C 13.640625 -107.023438 15.625 -107.78125 18.25 -107.78125 C 20.882812 -107.78125 22.878906 -107.023438 24.234375 -105.515625 C 25.597656 -104.003906 26.28125 -102.15625 26.28125 -99.96875 C 26.28125 -97.78125 25.597656 -95.953125 24.234375 -94.484375 C 22.878906 -93.023438 20.882812 -92.296875 18.25 -92.296875 C 15.625 -92.296875 13.640625 -93.023438 12.296875 -94.484375 C 10.960938 -95.953125 10.296875 -97.78125 10.296875 -99.96875 Z M 10.296875 -99.96875 "/></g></g></g><g fill="#ffffff" fill-opacity="1"><g transform="translate(106.649017, 601.242811)"><g><path d="M 7.015625 -40.15625 C 7.015625 -52.476562 9.859375 -62.273438 15.546875 -69.546875 C 21.242188 -76.828125 28.789062 -80.46875 38.1875 -80.46875 C 47.820312 -80.46875 55.34375 -77.0625 60.75 -70.25 L 61.40625 -79.015625 L 73.75 -79.015625 L 73.75 -1.90625 C 73.75 8.320312 70.71875 16.378906 64.65625 22.265625 C 58.59375 28.160156 50.453125 31.109375 40.234375 31.109375 C 34.535156 31.109375 28.957031 29.890625 23.5 27.453125 C 18.050781 25.023438 13.894531 21.691406 11.03125 17.453125 L 18.03125 9.34375 C 23.820312 16.5 30.90625 20.078125 39.28125 20.078125 C 45.851562 20.078125 50.976562 18.226562 54.65625 14.53125 C 58.332031 10.832031 60.171875 5.625 60.171875 -1.09375 L 60.171875 -7.890625 C 54.765625 -1.660156 47.390625 1.453125 38.046875 1.453125 C 28.796875 1.453125 21.3125 -2.269531 15.59375 -9.71875 C 9.875 -17.164062 7.015625 -27.3125 7.015625 -40.15625 Z M 20.59375 -38.625 C 20.59375 -29.71875 22.414062 -22.71875 26.0625 -17.625 C 29.71875 -12.539062 34.832031 -10 41.40625 -10 C 49.925781 -10 56.179688 -13.867188 60.171875 -21.609375 L 60.171875 -57.6875 C 56.035156 -65.226562 49.828125 -69 41.546875 -69 C 34.972656 -69 29.835938 -66.441406 26.140625 -61.328125 C 22.441406 -56.222656 20.59375 -48.65625 20.59375 -38.625 Z M 20.59375 -38.625 "/></g></g></g><g fill="#ffffff" fill-opacity="1"><g transform="translate(190.543594, 601.242811)"><g><path d="M 90.546875 -33.734375 C 89.234375 -22.492188 85.082031 -13.816406 78.09375 -7.703125 C 71.113281 -1.597656 61.828125 1.453125 50.234375 1.453125 C 37.679688 1.453125 27.617188 -3.046875 20.046875 -12.046875 C 12.472656 -21.054688 8.6875 -33.101562 8.6875 -48.1875 L 8.6875 -58.421875 C 8.6875 -68.296875 10.453125 -76.984375 13.984375 -84.484375 C 17.515625 -91.984375 22.515625 -97.738281 28.984375 -101.75 C 35.460938 -105.769531 42.960938 -107.78125 51.484375 -107.78125 C 62.773438 -107.78125 71.828125 -104.625 78.640625 -98.3125 C 85.453125 -92.007812 89.421875 -83.285156 90.546875 -72.140625 L 76.453125 -72.140625 C 75.234375 -80.609375 72.59375 -86.738281 68.53125 -90.53125 C 64.46875 -94.332031 58.785156 -96.234375 51.484375 -96.234375 C 42.523438 -96.234375 35.5 -92.921875 30.40625 -86.296875 C 25.320312 -79.679688 22.78125 -70.265625 22.78125 -58.046875 L 22.78125 -47.75 C 22.78125 -36.21875 25.1875 -27.039062 30 -20.21875 C 34.820312 -13.40625 41.566406 -10 50.234375 -10 C 58.023438 -10 64 -11.765625 68.15625 -15.296875 C 72.320312 -18.828125 75.085938 -24.972656 76.453125 -33.734375 Z M 90.546875 -33.734375 "/></g></g></g><g fill="#ffffff" fill-opacity="1"><g transform="translate(287.872984, 601.242811)"><g><path d="M 6.640625 -40.234375 C 6.640625 -47.972656 8.160156 -54.929688 11.203125 -61.109375 C 14.242188 -67.296875 18.476562 -72.066406 23.90625 -75.421875 C 29.34375 -78.785156 35.539062 -80.46875 42.5 -80.46875 C 53.257812 -80.46875 61.960938 -76.742188 68.609375 -69.296875 C 75.253906 -61.847656 78.578125 -51.941406 78.578125 -39.578125 L 78.578125 -38.625 C 78.578125 -30.9375 77.101562 -24.035156 74.15625 -17.921875 C 71.207031 -11.816406 66.992188 -7.0625 61.515625 -3.65625 C 56.046875 -0.25 49.753906 1.453125 42.640625 1.453125 C 31.929688 1.453125 23.253906 -2.269531 16.609375 -9.71875 C 9.960938 -17.164062 6.640625 -27.019531 6.640625 -39.28125 Z M 20.234375 -38.625 C 20.234375 -29.863281 22.265625 -22.828125 26.328125 -17.515625 C 30.390625 -12.210938 35.828125 -9.5625 42.640625 -9.5625 C 49.503906 -9.5625 54.957031 -12.25 59 -17.625 C 63.039062 -23.007812 65.0625 -30.546875 65.0625 -40.234375 C 65.0625 -48.898438 63.003906 -55.921875 58.890625 -61.296875 C 54.773438 -66.679688 49.3125 -69.375 42.5 -69.375 C 35.832031 -69.375 30.453125 -66.71875 26.359375 -61.40625 C 22.273438 -56.101562 20.234375 -48.507812 20.234375 -38.625 Z M 20.234375 -38.625 "/></g></g></g><g fill="#ffffff" fill-opacity="1"><g transform="translate(373.154859, 601.242811)"><g><path d="M 59 -7.8125 C 53.738281 -1.632812 46.023438 1.453125 35.859375 1.453125 C 27.429688 1.453125 21.015625 -0.988281 16.609375 -5.875 C 12.203125 -10.769531 9.976562 -18.015625 9.9375 -27.609375 L 9.9375 -79.015625 L 23.4375 -79.015625 L 23.4375 -27.96875 C 23.4375 -15.988281 28.304688 -10 38.046875 -10 C 48.367188 -10 55.234375 -13.847656 58.640625 -21.546875 L 58.640625 -79.015625 L 72.140625 -79.015625 L 72.140625 0 L 59.296875 0 Z M 59 -7.8125 "/></g></g></g><g fill="#ffffff" fill-opacity="1"><g transform="translate(455.589116, 601.242811)"><g><path d="M 48.40625 -66.890625 C 46.363281 -67.222656 44.148438 -67.390625 41.765625 -67.390625 C 32.910156 -67.390625 26.898438 -63.617188 23.734375 -56.078125 L 23.734375 0 L 10.21875 0 L 10.21875 -79.015625 L 23.359375 -79.015625 L 23.578125 -69.875 C 28.015625 -76.9375 34.296875 -80.46875 42.421875 -80.46875 C 45.054688 -80.46875 47.050781 -80.128906 48.40625 -79.453125 Z M 48.40625 -66.890625 "/></g></g></g><g fill="#ffffff" fill-opacity="1"><g transform="translate(506.188734, 601.242811)"><g><path d="M 56.21875 -20.953125 C 56.21875 -24.609375 54.84375 -27.445312 52.09375 -29.46875 C 49.34375 -31.488281 44.546875 -33.226562 37.703125 -34.6875 C 30.867188 -36.144531 25.441406 -37.894531 21.421875 -39.9375 C 17.410156 -41.988281 14.441406 -44.425781 12.515625 -47.25 C 10.597656 -50.070312 9.640625 -53.429688 9.640625 -57.328125 C 9.640625 -63.796875 12.375 -69.269531 17.84375 -73.75 C 23.320312 -78.226562 30.320312 -80.46875 38.84375 -80.46875 C 47.800781 -80.46875 55.066406 -78.15625 60.640625 -73.53125 C 66.210938 -68.90625 69 -62.988281 69 -55.78125 L 55.421875 -55.78125 C 55.421875 -59.488281 53.847656 -62.679688 50.703125 -65.359375 C 47.566406 -68.035156 43.613281 -69.375 38.84375 -69.375 C 33.925781 -69.375 30.078125 -68.300781 27.296875 -66.15625 C 24.523438 -64.007812 23.140625 -61.210938 23.140625 -57.765625 C 23.140625 -54.492188 24.429688 -52.03125 27.015625 -50.375 C 29.597656 -48.726562 34.257812 -47.148438 41 -45.640625 C 47.738281 -44.128906 53.203125 -42.328125 57.390625 -40.234375 C 61.578125 -38.140625 64.679688 -35.617188 66.703125 -32.671875 C 68.722656 -29.734375 69.734375 -26.144531 69.734375 -21.90625 C 69.734375 -14.84375 66.910156 -9.179688 61.265625 -4.921875 C 55.617188 -0.671875 48.289062 1.453125 39.28125 1.453125 C 32.957031 1.453125 27.359375 0.335938 22.484375 -1.890625 C 17.617188 -4.128906 13.8125 -7.257812 11.0625 -11.28125 C 8.3125 -15.300781 6.9375 -19.644531 6.9375 -24.3125 L 20.453125 -24.3125 C 20.691406 -19.789062 22.5 -16.203125 25.875 -13.546875 C 29.257812 -10.890625 33.726562 -9.5625 39.28125 -9.5625 C 44.394531 -9.5625 48.492188 -10.59375 51.578125 -12.65625 C 54.671875 -14.726562 56.21875 -17.492188 56.21875 -20.953125 Z M 56.21875 -20.953125 "/></g></g></g><g fill="#ffffff" fill-opacity="1"><g transform="translate(583.292882, 601.242811)"><g><path d="M 43.015625 1.453125 C 32.296875 1.453125 23.578125 -2.0625 16.859375 -9.09375 C 10.148438 -16.125 6.796875 -25.53125 6.796875 -37.3125 L 6.796875 -39.796875 C 6.796875 -47.628906 8.289062 -54.625 11.28125 -60.78125 C 14.269531 -66.945312 18.453125 -71.769531 23.828125 -75.25 C 29.210938 -78.726562 35.046875 -80.46875 41.328125 -80.46875 C 51.597656 -80.46875 59.582031 -77.082031 65.28125 -70.3125 C 70.976562 -63.550781 73.828125 -53.863281 73.828125 -41.25 L 73.828125 -35.640625 L 20.296875 -35.640625 C 20.492188 -27.847656 22.769531 -21.550781 27.125 -16.75 C 31.476562 -11.957031 37.015625 -9.5625 43.734375 -9.5625 C 48.503906 -9.5625 52.546875 -10.535156 55.859375 -12.484375 C 59.171875 -14.429688 62.066406 -17.015625 64.546875 -20.234375 L 72.796875 -13.796875 C 66.179688 -3.628906 56.253906 1.453125 43.015625 1.453125 Z M 41.328125 -69.375 C 35.878906 -69.375 31.300781 -67.390625 27.59375 -63.421875 C 23.894531 -59.453125 21.609375 -53.890625 20.734375 -46.734375 L 60.3125 -46.734375 L 60.3125 -47.75 C 59.925781 -54.613281 58.078125 -59.929688 54.765625 -63.703125 C 51.453125 -67.484375 46.972656 -69.375 41.328125 -69.375 Z M 41.328125 -69.375 "/></g></g></g><g fill="#ffffff" fill-opacity="1"><g transform="translate(662.514494, 601.242811)"><g><path d="M 56.21875 -20.953125 C 56.21875 -24.609375 54.84375 -27.445312 52.09375 -29.46875 C 49.34375 -31.488281 44.546875 -33.226562 37.703125 -34.6875 C 30.867188 -36.144531 25.441406 -37.894531 21.421875 -39.9375 C 17.410156 -41.988281 14.441406 -44.425781 12.515625 -47.25 C 10.597656 -50.070312 9.640625 -53.429688 9.640625 -57.328125 C 9.640625 -63.796875 12.375 -69.269531 17.84375 -73.75 C 23.320312 -78.226562 30.320312 -80.46875 38.84375 -80.46875 C 47.800781 -80.46875 55.066406 -78.15625 60.640625 -73.53125 C 66.210938 -68.90625 69 -62.988281 69 -55.78125 L 55.421875 -55.78125 C 55.421875 -59.488281 53.847656 -62.679688 50.703125 -65.359375 C 47.566406 -68.035156 43.613281 -69.375 38.84375 -69.375 C 33.925781 -69.375 30.078125 -68.300781 27.296875 -66.15625 C 24.523438 -64.007812 23.140625 -61.210938 23.140625 -57.765625 C 23.140625 -54.492188 24.429688 -52.03125 27.015625 -50.375 C 29.597656 -48.726562 34.257812 -47.148438 41 -45.640625 C 47.738281 -44.128906 53.203125 -42.328125 57.390625 -40.234375 C 61.578125 -38.140625 64.679688 -35.617188 66.703125 -32.671875 C 68.722656 -29.734375 69.734375 -26.144531 69.734375 -21.90625 C 69.734375 -14.84375 66.910156 -9.179688 61.265625 -4.921875 C 55.617188 -0.671875 48.289062 1.453125 39.28125 1.453125 C 32.957031 1.453125 27.359375 0.335938 22.484375 -1.890625 C 17.617188 -4.128906 13.8125 -7.257812 11.0625 -11.28125 C 8.3125 -15.300781 6.9375 -19.644531 6.9375 -24.3125 L 20.453125 -24.3125 C 20.691406 -19.789062 22.5 -16.203125 25.875 -13.546875 C 29.257812 -10.890625 33.726562 -9.5625 39.28125 -9.5625 C 44.394531 -9.5625 48.492188 -10.59375 51.578125 -12.65625 C 54.671875 -14.726562 56.21875 -17.492188 56.21875 -20.953125 Z M 56.21875 -20.953125 "/></g></g></g></svg>